Coordinates
version=1
nRows=32
nColumns=18
inDegrees=yes

Units are S.I. units (second, meters, Newtons, ...)
If the header above contains a line with 'inDegrees', this indicates whether rotational values are in degrees (yes) or radians (no).

endheader
time	ground_thorax_rot_x	ground_thorax_rot_y	ground_thorax_rot_z	ground_thorax_tx	ground_thorax_ty	ground_thorax_tz	clav_prot	clav_elev	scapula_abduction	scapula_elevation	scapula_upward_rot	scapula_winging	plane_elv	shoulder_elv	axial_rot	elbow_flexion	pro_sup
      4.17000000	      0.43773856	     -8.72832676	    -11.18140493	      0.00000000	      0.00000000	      0.00000000	    -43.01760936	     10.62864935	      0.40014254	     -0.80716930	     81.01490809	    -11.80781013	     37.21849557	     86.34074693	    -14.47047333	      0.00000000	     34.32000000
      4.18000000	      0.43823332	     -8.88024562	    -11.26015925	      0.00000000	      0.00000000	      0.00000000	    -42.71743648	     10.54400348	      0.81542999	     -0.85503280	     80.85950416	    -11.62838948	     37.13707887	     86.46149392	    -14.40650962	      0.00000000	     34.32000000
      4.19000000	      0.14134092	     -8.47287240	    -11.38116764	      0.00000000	      0.00000000	      0.00000000	    -43.00088625	     10.23157874	      0.12666774	     -1.12952702	     80.49874675	    -11.79231580	     37.61393649	     86.15742495	    -14.74464895	      0.00000000	     34.32000000
      4.20000000	      0.18019863	     -8.50469987	    -11.36582196	      0.00000000	      0.00000000	      0.00000000	    -42.90575611	     10.26550300	      0.09064558	     -1.12371216	     80.25790272	    -11.77844782	     37.79693876	     86.19086540	    -15.40631251	      0.00000000	     34.32000000
      4.21000000	      0.27707933	     -8.80544718	    -11.25548099	      0.00000000	      0.00000000	      0.00000000	    -42.62463977	     10.39276515	      0.53125063	     -1.01435411	     80.24832392	    -11.63535599	     37.87737314	     85.91771159	    -15.36810947	      0.00000000	     34.32000000
      4.22000000	      0.36691914	     -9.02894858	    -11.22175335	      0.00000000	      0.00000000	      0.00000000	    -42.34229841	     10.43729136	      0.93881753	     -0.96839024	     80.16510951	    -11.48614492	     38.06244444	     85.75661344	    -15.09313959	      0.00000000	     34.32000000
      4.23000000	      0.40227913	     -9.16327138	    -11.20908475	      0.00000000	      0.00000000	      0.00000000	    -42.09183888	     10.42612493	      1.24111575	     -0.97141470	     79.99895146	    -11.35867000	     38.31355112	     85.58528504	    -14.83204021	      0.00000000	     34.32000000
      4.24000000	      0.38572871	     -9.25282952	    -11.22218064	      0.00000000	      0.00000000	      0.00000000	    -41.87236458	     10.38045788	      1.44060225	     -1.00792603	     79.75904802	    -11.25487796	     38.56990706	     85.42004854	    -14.64013399	      0.00000000	     34.32000000
      4.25000000	      0.34349929	     -9.32510459	    -11.26559362	      0.00000000	      0.00000000	      0.00000000	    -41.67406379	     10.32613796	      1.58025762	     -1.05508777	     79.48721094	    -11.16730960	     38.84005537	     85.31256998	    -14.47779788	      0.00000000	     34.32000000
      4.26000000	      0.19751878	     -9.17659565	    -11.40482343	      0.00000000	      0.00000000	      0.00000000	    -41.61219385	     10.13608074	      1.41151242	     -1.21904035	     79.08005516	    -11.14989751	     39.28392464	     85.34794332	    -14.18021691	      0.00000000	     34.32000000
      4.27000000	      0.10559838	     -8.74863721	    -11.41366056	      0.00000000	      0.00000000	      0.00000000	    -41.79200478	     10.13554135	      0.78355027	     -1.27365839	     78.68128831	    -11.31242450	     40.01540550	     85.22665336	    -14.07794141	      0.00000000	     34.32000000
      4.28000000	      0.25688345	     -8.87255814	    -11.33599578	      0.00000000	      0.00000000	      0.00000000	    -41.43057362	     10.31168715	      1.19336044	     -1.14305938	     78.47422127	    -11.16995580	     40.26286406	     85.22938178	    -13.81830255	      0.00000000	     34.32000000
      4.29000000	      0.46507176	     -9.02970656	    -11.15062054	      0.00000000	      0.00000000	      0.00000000	    -41.06378718	     10.55243519	      1.61923865	     -0.96527360	     78.29548901	    -11.03553275	     40.56532793	     85.04669618	    -13.61667455	      0.00000000	     34.32000000
      4.30000000	      0.49075799	     -9.02554791	    -11.14162819	      0.00000000	      0.00000000	      0.00000000	    -40.82145570	     10.48365470	      1.77934799	     -1.02297475	     77.95118078	    -10.93169418	     40.95319082	     84.98172370	    -13.35071220	      0.00000000	     34.32000000
      4.31000000	      0.31591842	     -8.59496732	    -11.22776082	      0.00000000	      0.00000000	      0.00000000	    -40.95385968	     10.32409590	      1.08305641	     -1.19957647	     77.31908867	    -11.05838740	     41.64419261	     85.04671730	    -13.60579858	      0.00000000	     34.32000000
      4.32000000	      0.40009705	     -8.58607071	    -11.38767275	      0.00000000	      0.00000000	      0.00000000	    -40.91241582	     10.33873087	      1.10687174	     -1.19083984	     77.26520583	    -11.04487224	     41.71932274	     84.95979434	    -13.62295953	      0.00000000	     34.32000000
      4.33000000	      0.33079027	     -8.59081696	    -11.28205040	      0.00000000	      0.00000000	      0.00000000	    -40.73088962	     10.36715643	      0.96299604	     -1.20409715	     76.70944695	    -11.02100605	     42.36748574	     85.02021524	    -13.87142971	      0.00000000	     34.32000000
      4.34000000	      0.40352923	     -8.74676556	    -11.20534335	      0.00000000	      0.00000000	      0.00000000	    -40.45182913	     10.30463455	      1.35042830	     -1.23415755	     76.57198351	    -10.86998084	     42.66991728	     84.73972794	    -13.63413547	      0.00000000	     34.32000000
      4.35000000	      0.42478154	     -8.83124788	    -11.21687856	      0.00000000	      0.00000000	      0.00000000	    -40.18343492	     10.12730347	      1.64520872	     -1.35368690	     76.30444810	    -10.71813783	     43.04214054	     84.64110749	    -13.29457575	      0.00000000	     34.32000000
      4.36000000	      0.32611005	     -8.76432660	    -11.35323706	      0.00000000	      0.00000000	      0.00000000	    -40.06490182	      9.94158600	      1.53556223	     -1.50597856	     75.85581281	    -10.66768265	     43.50910949	     84.78205927	    -12.97971616	      0.00000000	     34.32000000
      4.37000000	      0.42135920	     -8.70091743	    -11.26294088	      0.00000000	      0.00000000	      0.00000000	    -40.05886013	     10.25455201	      1.22663721	     -1.31615652	     75.56755215	    -10.76724189	     44.08124604	     84.83488609	    -13.09322121	      0.00000000	     34.32000000
      4.38000000	      0.45013244	     -8.73092765	    -11.24971034	      0.00000000	      0.00000000	      0.00000000	    -39.94622008	     10.39398277	      1.13464158	     -1.23572460	     75.26297570	    -10.77187032	     44.55556697	     84.96124359	    -13.31544578	      0.00000000	     34.32000000
      4.39000000	      0.33569061	     -8.65566271	    -11.35789917	      0.00000000	      0.00000000	      0.00000000	    -39.96852102	     10.22594481	      0.87647723	     -1.37604247	     74.93704149	    -10.78496041	     45.17925337	     84.78791351	    -12.90824725	      0.00000000	     34.32000000
      4.40000000	      0.43179693	     -8.75553388	    -11.28752563	      0.00000000	      0.00000000	      0.00000000	    -39.86013748	     10.36293518	      0.83262024	     -1.29153456	     74.70074645	    -10.78269560	     45.72819248	     84.57743342	    -12.61974684	      0.00000000	     34.32000000
      4.41000000	      0.48103785	     -8.81144930	    -11.26799395	      0.00000000	      0.00000000	      0.00000000	    -39.73328435	     10.39994460	      0.84855953	     -1.27282193	     74.46504461	    -10.74878622	     46.11979592	     84.40538390	    -12.38076955	      0.00000000	     34.32000000
      4.42000000	      0.46788831	     -8.83803571	    -11.29634463	      0.00000000	      0.00000000	      0.00000000	    -39.55066769	     10.33499870	      1.03052659	     -1.31456097	     74.27981538	    -10.65840104	     46.26815266	     84.28999524	    -12.17624841	      0.00000000	     34.32000000
      4.43000000	      0.42819026	     -8.86662831	    -11.33353988	      0.00000000	      0.00000000	      0.00000000	    -39.35058245	     10.23662677	      1.28460488	     -1.37455296	     74.13424032	    -10.54824779	     46.30959067	     84.16876807	    -11.99946478	      0.00000000	     34.32000000
      4.44000000	      0.43278858	     -8.94399505	    -11.31360703	      0.00000000	      0.00000000	      0.00000000	    -39.16081018	     10.22552711	      1.50320771	     -1.37565336	     73.99642569	    -10.46219456	     46.38215649	     83.92188524	    -11.94494885	      0.00000000	     34.32000000
      4.45000000	      0.40012063	     -8.96134962	    -11.34198725	      0.00000000	      0.00000000	      0.00000000	    -39.02471407	     10.15885131	      1.53738806	     -1.42771676	     73.72867177	    -10.40587019	     46.54966047	     83.70326269	    -11.99817212	      0.00000000	     34.32000000
      4.46000000	      0.32417610	     -8.97438619	    -11.42354691	      0.00000000	      0.00000000	      0.00000000	    -38.87732438	     10.06289349	      1.58810794	     -1.49919557	     73.44758023	    -10.33870619	     46.74811910	     83.56072031	    -11.71609698	      0.00000000	     34.32000000
      4.47000000	      0.35575794	     -9.06425051	    -11.42657655	      0.00000000	      0.00000000	      0.00000000	    -38.69160624	     10.19159699	      1.72624173	     -1.40810812	     73.26752492	    -10.29060978	     47.00363618	     83.55671174	    -11.44297393	      0.00000000	     34.32000000
      4.48000000	      0.22382492	     -9.01736534	    -11.52621562	      0.00000000	      0.00000000	      0.00000000	    -38.61929903	     10.17705525	      1.59054492	     -1.43246253	     72.94623574	    -10.28252299	     47.40092796	     83.54955762	    -10.59055815	      0.00000000	     34.32000000
